G04 EAGLE Gerber RS-274X export*
G75*
%MOMM*%
%FSLAX34Y34*%
%LPD*%
%IN*%
%IPPOS*%
%AMOC8*
5,1,8,0,0,1.08239X$1,22.5*%
G01*
%ADD10C,0.254000*%


D10*
X0Y30000D02*
X114Y27385D01*
X456Y24791D01*
X1022Y22235D01*
X1809Y19739D01*
X2811Y17321D01*
X4019Y15000D01*
X5425Y12793D01*
X7019Y10716D01*
X8787Y8787D01*
X10716Y7019D01*
X12793Y5425D01*
X15000Y4019D01*
X17321Y2811D01*
X19739Y1809D01*
X22235Y1022D01*
X24791Y456D01*
X27385Y114D01*
X30000Y0D01*
X970000Y0D01*
X972615Y114D01*
X975210Y455D01*
X977765Y1021D01*
X980262Y1808D01*
X982680Y2809D01*
X985001Y4018D01*
X987209Y5424D01*
X989286Y7017D01*
X991216Y8785D01*
X992984Y10714D01*
X994578Y12790D01*
X995984Y14998D01*
X997193Y17319D01*
X998195Y19737D01*
X998982Y22233D01*
X999549Y24788D01*
X999891Y27383D01*
X1000000Y29410D01*
X1000000Y470590D01*
X999861Y473178D01*
X999497Y475744D01*
X998911Y478268D01*
X998107Y480732D01*
X997092Y483116D01*
X995873Y485403D01*
X994459Y487575D01*
X992861Y489615D01*
X991091Y491508D01*
X989163Y493240D01*
X987091Y494797D01*
X984892Y496168D01*
X982581Y497342D01*
X980177Y498309D01*
X977698Y499064D01*
X975163Y499600D01*
X972590Y499913D01*
X970000Y500000D01*
X30000Y500000D01*
X27385Y499886D01*
X24790Y499544D01*
X22235Y498978D01*
X19739Y498191D01*
X17321Y497189D01*
X15000Y495981D01*
X12792Y494575D01*
X10716Y492981D01*
X8787Y491213D01*
X7019Y489284D01*
X5425Y487207D01*
X4019Y485000D01*
X2811Y482679D01*
X1809Y480261D01*
X1022Y477765D01*
X456Y475210D01*
X114Y472615D01*
X0Y470000D01*
X0Y470000D01*
X0Y30000D01*
X901833Y42830D02*
X901311Y42778D01*
X900796Y42680D01*
X900292Y42538D01*
X899801Y42353D01*
X899329Y42125D01*
X898878Y41858D01*
X898453Y41552D01*
X898055Y41210D01*
X897689Y40834D01*
X897357Y40429D01*
X897062Y39995D01*
X896805Y39538D01*
X896590Y39060D01*
X896417Y38565D01*
X896287Y38057D01*
X896203Y37540D01*
X896163Y37017D01*
X896170Y36493D01*
X896222Y35971D01*
X896320Y35456D01*
X896462Y34952D01*
X896647Y34461D01*
X896875Y33989D01*
X897142Y33538D01*
X897448Y33113D01*
X897790Y32715D01*
X898166Y32349D01*
X898571Y32017D01*
X899005Y31722D01*
X899462Y31465D01*
X899940Y31250D01*
X900435Y31077D01*
X900943Y30947D01*
X901460Y30863D01*
X901983Y30823D01*
X902507Y30830D01*
X903177Y30905D01*
X903690Y31015D01*
X904191Y31170D01*
X904676Y31367D01*
X905143Y31607D01*
X905587Y31886D01*
X906004Y32202D01*
X906393Y32554D01*
X906750Y32938D01*
X907072Y33352D01*
X907356Y33793D01*
X907601Y34256D01*
X907805Y34739D01*
X907965Y35238D01*
X908082Y35750D01*
X908154Y36269D01*
X908180Y36793D01*
X908160Y37316D01*
X908095Y37837D01*
X907985Y38349D01*
X907830Y38850D01*
X907632Y39336D01*
X907393Y39802D01*
X907114Y40246D01*
X906798Y40664D01*
X906446Y41053D01*
X906062Y41409D01*
X905648Y41731D01*
X905207Y42016D01*
X904744Y42261D01*
X904261Y42464D01*
X903762Y42625D01*
X903250Y42742D01*
X902731Y42813D01*
X902207Y42839D01*
X901833Y42830D01*
X317271Y46570D02*
X316902Y46530D01*
X316537Y46457D01*
X316181Y46353D01*
X315834Y46218D01*
X315501Y46054D01*
X315183Y45861D01*
X314884Y45641D01*
X314604Y45396D01*
X314348Y45128D01*
X314115Y44838D01*
X313909Y44529D01*
X313730Y44203D01*
X313580Y43863D01*
X313461Y43511D01*
X313373Y43151D01*
X313316Y42783D01*
X313292Y42412D01*
X313300Y42041D01*
X313341Y41672D01*
X313413Y41307D01*
X313517Y40951D01*
X313652Y40604D01*
X313816Y40271D01*
X314009Y39953D01*
X314229Y39654D01*
X314474Y39374D01*
X314742Y39118D01*
X315032Y38885D01*
X315341Y38679D01*
X315667Y38500D01*
X316007Y38350D01*
X316359Y38231D01*
X316720Y38143D01*
X317087Y38086D01*
X317458Y38062D01*
X317829Y38070D01*
X318381Y38143D01*
X318562Y38183D01*
X318919Y38287D01*
X319265Y38422D01*
X319599Y38586D01*
X319916Y38779D01*
X320216Y38999D01*
X320495Y39244D01*
X320752Y39512D01*
X320985Y39802D01*
X321191Y40111D01*
X321370Y40437D01*
X321519Y40777D01*
X321639Y41129D01*
X321727Y41489D01*
X321784Y41857D01*
X321808Y42227D01*
X321800Y42599D01*
X321759Y42968D01*
X321687Y43333D01*
X321583Y43689D01*
X321448Y44036D01*
X321284Y44369D01*
X321091Y44687D01*
X320871Y44986D01*
X320626Y45265D01*
X320358Y45522D01*
X320068Y45755D01*
X319759Y45961D01*
X319433Y46140D01*
X319093Y46290D01*
X318741Y46409D01*
X318380Y46497D01*
X318013Y46554D01*
X317642Y46578D01*
X317271Y46570D01*
X901833Y17830D02*
X901311Y17778D01*
X900796Y17680D01*
X900292Y17538D01*
X899801Y17353D01*
X899329Y17125D01*
X898878Y16858D01*
X898453Y16552D01*
X898055Y16210D01*
X897689Y15834D01*
X897357Y15429D01*
X897062Y14995D01*
X896805Y14538D01*
X896590Y14060D01*
X896417Y13565D01*
X896287Y13057D01*
X896203Y12540D01*
X896163Y12017D01*
X896170Y11493D01*
X896222Y10971D01*
X896320Y10456D01*
X896462Y9952D01*
X896647Y9461D01*
X896875Y8989D01*
X897142Y8538D01*
X897448Y8113D01*
X897790Y7715D01*
X898166Y7349D01*
X898571Y7017D01*
X899005Y6722D01*
X899462Y6465D01*
X899940Y6250D01*
X900435Y6077D01*
X900943Y5947D01*
X901460Y5863D01*
X901983Y5823D01*
X902507Y5830D01*
X903177Y5905D01*
X903544Y5979D01*
X904049Y6121D01*
X904539Y6307D01*
X905011Y6534D01*
X905462Y6802D01*
X905888Y7108D01*
X906285Y7450D01*
X906651Y7825D01*
X906983Y8231D01*
X907279Y8664D01*
X907535Y9122D01*
X907751Y9599D01*
X907924Y10094D01*
X908053Y10602D01*
X908138Y11120D01*
X908177Y11643D01*
X908170Y12167D01*
X908118Y12689D01*
X908021Y13204D01*
X907879Y13708D01*
X907693Y14199D01*
X907466Y14671D01*
X907198Y15122D01*
X906892Y15548D01*
X906550Y15945D01*
X906175Y16311D01*
X905769Y16643D01*
X905336Y16938D01*
X904878Y17195D01*
X904400Y17410D01*
X903906Y17583D01*
X903397Y17713D01*
X902880Y17797D01*
X902357Y17837D01*
X901833Y17830D01*
X801833Y17830D02*
X801311Y17778D01*
X800796Y17680D01*
X800292Y17538D01*
X799801Y17353D01*
X799329Y17125D01*
X798878Y16858D01*
X798453Y16552D01*
X798055Y16210D01*
X797689Y15834D01*
X797357Y15429D01*
X797062Y14995D01*
X796805Y14538D01*
X796590Y14060D01*
X796417Y13565D01*
X796287Y13057D01*
X796203Y12540D01*
X796163Y12017D01*
X796170Y11493D01*
X796222Y10971D01*
X796320Y10456D01*
X796462Y9952D01*
X796647Y9461D01*
X796875Y8989D01*
X797142Y8538D01*
X797448Y8113D01*
X797790Y7715D01*
X798166Y7349D01*
X798571Y7017D01*
X799005Y6722D01*
X799462Y6465D01*
X799940Y6250D01*
X800435Y6077D01*
X800943Y5947D01*
X801460Y5863D01*
X801983Y5823D01*
X802507Y5830D01*
X803177Y5905D01*
X803544Y5979D01*
X804049Y6121D01*
X804539Y6307D01*
X805011Y6534D01*
X805462Y6802D01*
X805888Y7108D01*
X806285Y7450D01*
X806651Y7825D01*
X806983Y8231D01*
X807279Y8664D01*
X807535Y9122D01*
X807751Y9599D01*
X807924Y10094D01*
X808053Y10602D01*
X808138Y11120D01*
X808177Y11643D01*
X808170Y12167D01*
X808118Y12689D01*
X808021Y13204D01*
X807879Y13708D01*
X807693Y14199D01*
X807466Y14671D01*
X807198Y15122D01*
X806892Y15548D01*
X806550Y15945D01*
X806175Y16311D01*
X805769Y16643D01*
X805336Y16938D01*
X804878Y17195D01*
X804400Y17410D01*
X803906Y17583D01*
X803397Y17713D01*
X802880Y17797D01*
X802357Y17837D01*
X801833Y17830D01*
X851833Y92830D02*
X851311Y92778D01*
X850796Y92680D01*
X850292Y92538D01*
X849801Y92353D01*
X849329Y92125D01*
X848878Y91858D01*
X848453Y91552D01*
X848055Y91210D01*
X847689Y90834D01*
X847357Y90429D01*
X847062Y89995D01*
X846805Y89538D01*
X846590Y89060D01*
X846417Y88565D01*
X846287Y88057D01*
X846203Y87540D01*
X846163Y87017D01*
X846170Y86493D01*
X846222Y85971D01*
X846320Y85456D01*
X846462Y84952D01*
X846647Y84461D01*
X846875Y83989D01*
X847142Y83538D01*
X847448Y83113D01*
X847790Y82715D01*
X848166Y82349D01*
X848571Y82017D01*
X849005Y81722D01*
X849462Y81465D01*
X849940Y81250D01*
X850435Y81077D01*
X850943Y80947D01*
X851460Y80863D01*
X851983Y80823D01*
X852507Y80830D01*
X853177Y80906D01*
X853690Y81016D01*
X854190Y81171D01*
X854676Y81368D01*
X855143Y81608D01*
X855586Y81887D01*
X856004Y82203D01*
X856393Y82555D01*
X856749Y82939D01*
X857071Y83353D01*
X857356Y83794D01*
X857601Y84257D01*
X857804Y84740D01*
X857965Y85239D01*
X858082Y85750D01*
X858153Y86269D01*
X858179Y86793D01*
X858160Y87317D01*
X858094Y87837D01*
X857984Y88350D01*
X857830Y88851D01*
X857632Y89336D01*
X857393Y89803D01*
X857114Y90246D01*
X856797Y90664D01*
X856446Y91053D01*
X856061Y91410D01*
X855647Y91731D01*
X855207Y92016D01*
X854743Y92261D01*
X854260Y92464D01*
X853761Y92625D01*
X853250Y92742D01*
X852731Y92813D01*
X852207Y92839D01*
X851833Y92830D01*
X355271Y46570D02*
X354902Y46530D01*
X354537Y46457D01*
X354181Y46353D01*
X353834Y46218D01*
X353501Y46054D01*
X353183Y45861D01*
X352884Y45641D01*
X352604Y45396D01*
X352348Y45128D01*
X352115Y44838D01*
X351909Y44529D01*
X351730Y44203D01*
X351580Y43863D01*
X351461Y43511D01*
X351373Y43151D01*
X351316Y42783D01*
X351292Y42412D01*
X351300Y42041D01*
X351341Y41672D01*
X351413Y41307D01*
X351517Y40951D01*
X351652Y40604D01*
X351816Y40271D01*
X352009Y39953D01*
X352229Y39654D01*
X352474Y39374D01*
X352742Y39118D01*
X353032Y38885D01*
X353341Y38679D01*
X353667Y38500D01*
X354007Y38350D01*
X354359Y38231D01*
X354720Y38143D01*
X355087Y38086D01*
X355458Y38062D01*
X355829Y38070D01*
X356381Y38143D01*
X356742Y38231D01*
X357094Y38351D01*
X357434Y38500D01*
X357760Y38679D01*
X358068Y38886D01*
X358358Y39118D01*
X358627Y39375D01*
X358872Y39655D01*
X359091Y39954D01*
X359284Y40272D01*
X359448Y40605D01*
X359583Y40951D01*
X359687Y41308D01*
X359759Y41673D01*
X359800Y42042D01*
X359808Y42413D01*
X359783Y42784D01*
X359727Y43151D01*
X359639Y43512D01*
X359519Y43864D01*
X359369Y44204D01*
X359191Y44530D01*
X358984Y44839D01*
X358752Y45128D01*
X358495Y45397D01*
X358215Y45642D01*
X357916Y45861D01*
X357598Y46054D01*
X357265Y46219D01*
X356919Y46353D01*
X356562Y46457D01*
X356197Y46530D01*
X355828Y46570D01*
X355457Y46578D01*
X355271Y46570D01*
X801833Y42830D02*
X801311Y42778D01*
X800796Y42680D01*
X800292Y42538D01*
X799801Y42353D01*
X799329Y42125D01*
X798878Y41858D01*
X798453Y41552D01*
X798055Y41210D01*
X797689Y40834D01*
X797357Y40429D01*
X797062Y39995D01*
X796805Y39538D01*
X796590Y39060D01*
X796417Y38565D01*
X796287Y38057D01*
X796203Y37540D01*
X796163Y37017D01*
X796170Y36493D01*
X796222Y35971D01*
X796320Y35456D01*
X796462Y34952D01*
X796647Y34461D01*
X796875Y33989D01*
X797142Y33538D01*
X797448Y33113D01*
X797790Y32715D01*
X798166Y32349D01*
X798571Y32017D01*
X799005Y31722D01*
X799462Y31465D01*
X799940Y31250D01*
X800435Y31077D01*
X800943Y30947D01*
X801460Y30863D01*
X801983Y30823D01*
X802507Y30830D01*
X803177Y30905D01*
X803690Y31015D01*
X804191Y31170D01*
X804676Y31367D01*
X805143Y31607D01*
X805587Y31886D01*
X806004Y32202D01*
X806393Y32554D01*
X806750Y32938D01*
X807072Y33352D01*
X807356Y33793D01*
X807601Y34256D01*
X807805Y34739D01*
X807965Y35238D01*
X808082Y35750D01*
X808154Y36269D01*
X808180Y36793D01*
X808160Y37316D01*
X808095Y37837D01*
X807985Y38349D01*
X807830Y38850D01*
X807632Y39336D01*
X807393Y39802D01*
X807114Y40246D01*
X806798Y40664D01*
X806446Y41053D01*
X806062Y41409D01*
X805648Y41731D01*
X805207Y42016D01*
X804744Y42261D01*
X804261Y42464D01*
X803762Y42625D01*
X803250Y42742D01*
X802731Y42813D01*
X802207Y42839D01*
X801833Y42830D01*
X495717Y20710D02*
X495760Y20518D01*
X495870Y20140D01*
X496012Y19773D01*
X496186Y19420D01*
X496390Y19084D01*
X496623Y18767D01*
X496883Y18471D01*
X497167Y18199D01*
X497474Y17952D01*
X497801Y17734D01*
X498146Y17544D01*
X498506Y17386D01*
X498879Y17259D01*
X499261Y17166D01*
X499650Y17106D01*
X500043Y17080D01*
X500436Y17089D01*
X500827Y17132D01*
X501213Y17208D01*
X501591Y17318D01*
X501958Y17461D01*
X502311Y17635D01*
X502647Y17839D01*
X502965Y18072D01*
X503260Y18331D01*
X503533Y18616D01*
X503779Y18922D01*
X503997Y19250D01*
X504187Y19595D01*
X504345Y19955D01*
X504472Y20327D01*
X504565Y20710D01*
X504625Y21099D01*
X504651Y21491D01*
X504642Y21885D01*
X504600Y22276D01*
X504523Y22662D01*
X504413Y23040D01*
X504270Y23406D01*
X504096Y23759D01*
X503892Y24096D01*
X503659Y24413D01*
X503400Y24709D01*
X503116Y24981D01*
X502809Y25228D01*
X502481Y25446D01*
X502136Y25635D01*
X501776Y25794D01*
X501404Y25920D01*
X501021Y26014D01*
X500632Y26074D01*
X500240Y26100D01*
X499846Y26091D01*
X499455Y26048D01*
X499069Y25971D01*
X498691Y25861D01*
X498325Y25719D01*
X497972Y25545D01*
X497635Y25341D01*
X497318Y25108D01*
X497022Y24848D01*
X496750Y24564D01*
X496504Y24257D01*
X496285Y23930D01*
X496096Y23585D01*
X495937Y23225D01*
X495811Y22852D01*
X495717Y22470D01*
X495657Y22081D01*
X495631Y21688D01*
X495640Y21295D01*
X495717Y20710D01*
X465717Y20710D02*
X465760Y20518D01*
X465870Y20140D01*
X466012Y19773D01*
X466186Y19420D01*
X466390Y19084D01*
X466623Y18767D01*
X466883Y18471D01*
X467167Y18199D01*
X467474Y17952D01*
X467801Y17734D01*
X468146Y17544D01*
X468506Y17386D01*
X468879Y17259D01*
X469261Y17166D01*
X469650Y17106D01*
X470043Y17080D01*
X470436Y17089D01*
X470827Y17132D01*
X471213Y17208D01*
X471591Y17318D01*
X471958Y17461D01*
X472311Y17635D01*
X472647Y17839D01*
X472965Y18072D01*
X473260Y18331D01*
X473533Y18616D01*
X473779Y18922D01*
X473997Y19250D01*
X474187Y19595D01*
X474345Y19955D01*
X474472Y20327D01*
X474565Y20710D01*
X474625Y21099D01*
X474651Y21491D01*
X474642Y21885D01*
X474600Y22276D01*
X474523Y22662D01*
X474413Y23040D01*
X474270Y23406D01*
X474096Y23759D01*
X473892Y24096D01*
X473659Y24413D01*
X473400Y24709D01*
X473116Y24981D01*
X472809Y25228D01*
X472481Y25446D01*
X472136Y25635D01*
X471776Y25794D01*
X471404Y25920D01*
X471021Y26014D01*
X470632Y26074D01*
X470240Y26100D01*
X469846Y26091D01*
X469455Y26048D01*
X469069Y25971D01*
X468691Y25861D01*
X468325Y25719D01*
X467972Y25545D01*
X467635Y25341D01*
X467318Y25108D01*
X467022Y24848D01*
X466750Y24564D01*
X466504Y24257D01*
X466285Y23930D01*
X466096Y23585D01*
X465937Y23225D01*
X465811Y22852D01*
X465717Y22470D01*
X465657Y22081D01*
X465631Y21688D01*
X465640Y21295D01*
X465717Y20710D01*
X908170Y36493D02*
X908095Y35823D01*
X907945Y35166D01*
X907722Y34530D01*
X907430Y33923D01*
X907071Y33353D01*
X906651Y32826D01*
X906174Y32349D01*
X905648Y31929D01*
X905077Y31570D01*
X904470Y31278D01*
X903834Y31055D01*
X903177Y30905D01*
X902507Y30830D01*
X901833Y30830D01*
X901163Y30905D01*
X900506Y31055D01*
X899870Y31278D01*
X899263Y31570D01*
X898693Y31929D01*
X898166Y32349D01*
X897689Y32826D01*
X897269Y33353D01*
X896910Y33923D01*
X896618Y34530D01*
X896395Y35166D01*
X896245Y35823D01*
X896170Y36493D01*
X896170Y37167D01*
X896245Y37837D01*
X896395Y38494D01*
X896618Y39130D01*
X896910Y39737D01*
X897269Y40308D01*
X897689Y40834D01*
X898166Y41311D01*
X898693Y41731D01*
X899263Y42090D01*
X899870Y42382D01*
X900506Y42605D01*
X901163Y42755D01*
X901833Y42830D01*
X902507Y42830D01*
X903177Y42755D01*
X903834Y42605D01*
X904470Y42382D01*
X905077Y42090D01*
X905648Y41731D01*
X906174Y41311D01*
X906651Y40834D01*
X907071Y40308D01*
X907430Y39737D01*
X907722Y39130D01*
X907945Y38494D01*
X908095Y37837D01*
X908170Y37167D01*
X908170Y36493D01*
X908170Y11493D02*
X908095Y10823D01*
X907945Y10166D01*
X907722Y9530D01*
X907430Y8923D01*
X907071Y8353D01*
X906651Y7826D01*
X906174Y7349D01*
X905648Y6929D01*
X905077Y6570D01*
X904470Y6278D01*
X903834Y6055D01*
X903177Y5905D01*
X902507Y5830D01*
X901833Y5830D01*
X901163Y5905D01*
X900506Y6055D01*
X899870Y6278D01*
X899263Y6570D01*
X898693Y6929D01*
X898166Y7349D01*
X897689Y7826D01*
X897269Y8353D01*
X896910Y8923D01*
X896618Y9530D01*
X896395Y10166D01*
X896245Y10823D01*
X896170Y11493D01*
X896170Y12167D01*
X896245Y12837D01*
X896395Y13494D01*
X896618Y14130D01*
X896910Y14737D01*
X897269Y15308D01*
X897689Y15834D01*
X898166Y16311D01*
X898693Y16731D01*
X899263Y17090D01*
X899870Y17382D01*
X900506Y17605D01*
X901163Y17755D01*
X901833Y17830D01*
X902507Y17830D01*
X903177Y17755D01*
X903834Y17605D01*
X904470Y17382D01*
X905077Y17090D01*
X905648Y16731D01*
X906174Y16311D01*
X906651Y15834D01*
X907071Y15308D01*
X907430Y14737D01*
X907722Y14130D01*
X907945Y13494D01*
X908095Y12837D01*
X908170Y12167D01*
X908170Y11493D01*
X808170Y11493D02*
X808095Y10823D01*
X807945Y10166D01*
X807722Y9530D01*
X807430Y8923D01*
X807071Y8353D01*
X806651Y7826D01*
X806174Y7349D01*
X805648Y6929D01*
X805077Y6570D01*
X804470Y6278D01*
X803834Y6055D01*
X803177Y5905D01*
X802507Y5830D01*
X801833Y5830D01*
X801163Y5905D01*
X800506Y6055D01*
X799870Y6278D01*
X799263Y6570D01*
X798693Y6929D01*
X798166Y7349D01*
X797689Y7826D01*
X797269Y8353D01*
X796910Y8923D01*
X796618Y9530D01*
X796395Y10166D01*
X796245Y10823D01*
X796170Y11493D01*
X796170Y12167D01*
X796245Y12837D01*
X796395Y13494D01*
X796618Y14130D01*
X796910Y14737D01*
X797269Y15308D01*
X797689Y15834D01*
X798166Y16311D01*
X798693Y16731D01*
X799263Y17090D01*
X799870Y17382D01*
X800506Y17605D01*
X801163Y17755D01*
X801833Y17830D01*
X802507Y17830D01*
X803177Y17755D01*
X803834Y17605D01*
X804470Y17382D01*
X805077Y17090D01*
X805648Y16731D01*
X806174Y16311D01*
X806651Y15834D01*
X807071Y15308D01*
X807430Y14737D01*
X807722Y14130D01*
X807945Y13494D01*
X808095Y12837D01*
X808170Y12167D01*
X808170Y11493D01*
X808170Y36493D02*
X808095Y35823D01*
X807945Y35166D01*
X807722Y34530D01*
X807430Y33923D01*
X807071Y33353D01*
X806651Y32826D01*
X806174Y32349D01*
X805648Y31929D01*
X805077Y31570D01*
X804470Y31278D01*
X803834Y31055D01*
X803177Y30905D01*
X802507Y30830D01*
X801833Y30830D01*
X801163Y30905D01*
X800506Y31055D01*
X799870Y31278D01*
X799263Y31570D01*
X798693Y31929D01*
X798166Y32349D01*
X797689Y32826D01*
X797269Y33353D01*
X796910Y33923D01*
X796618Y34530D01*
X796395Y35166D01*
X796245Y35823D01*
X796170Y36493D01*
X796170Y37167D01*
X796245Y37837D01*
X796395Y38494D01*
X796618Y39130D01*
X796910Y39737D01*
X797269Y40308D01*
X797689Y40834D01*
X798166Y41311D01*
X798693Y41731D01*
X799263Y42090D01*
X799870Y42382D01*
X800506Y42605D01*
X801163Y42755D01*
X801833Y42830D01*
X802507Y42830D01*
X803177Y42755D01*
X803834Y42605D01*
X804470Y42382D01*
X805077Y42090D01*
X805648Y41731D01*
X806174Y41311D01*
X806651Y40834D01*
X807071Y40308D01*
X807430Y39737D01*
X807722Y39130D01*
X807945Y38494D01*
X808095Y37837D01*
X808170Y37167D01*
X808170Y36493D01*
X858170Y86493D02*
X858095Y85823D01*
X857945Y85166D01*
X857722Y84530D01*
X857430Y83923D01*
X857071Y83353D01*
X856651Y82826D01*
X856174Y82349D01*
X855648Y81929D01*
X855077Y81570D01*
X854470Y81278D01*
X853834Y81055D01*
X853177Y80905D01*
X852507Y80830D01*
X851833Y80830D01*
X851163Y80905D01*
X850506Y81055D01*
X849870Y81278D01*
X849263Y81570D01*
X848693Y81929D01*
X848166Y82349D01*
X847689Y82826D01*
X847269Y83353D01*
X846910Y83923D01*
X846618Y84530D01*
X846395Y85166D01*
X846245Y85823D01*
X846170Y86493D01*
X846170Y87167D01*
X846245Y87837D01*
X846395Y88494D01*
X846618Y89130D01*
X846910Y89737D01*
X847269Y90308D01*
X847689Y90834D01*
X848166Y91311D01*
X848693Y91731D01*
X849263Y92090D01*
X849870Y92382D01*
X850506Y92605D01*
X851163Y92755D01*
X851833Y92830D01*
X852507Y92830D01*
X853177Y92755D01*
X853834Y92605D01*
X854470Y92382D01*
X855077Y92090D01*
X855648Y91731D01*
X856174Y91311D01*
X856651Y90834D01*
X857071Y90308D01*
X857430Y89737D01*
X857722Y89130D01*
X857945Y88494D01*
X858095Y87837D01*
X858170Y87167D01*
X858170Y86493D01*
X504640Y21295D02*
X504563Y20710D01*
X504410Y20140D01*
X504185Y19595D01*
X503890Y19085D01*
X503531Y18617D01*
X503113Y18199D01*
X502645Y17840D01*
X502135Y17545D01*
X501590Y17320D01*
X501020Y17167D01*
X500435Y17090D01*
X499845Y17090D01*
X499260Y17167D01*
X498690Y17320D01*
X498145Y17545D01*
X497635Y17840D01*
X497167Y18199D01*
X496749Y18617D01*
X496390Y19085D01*
X496095Y19595D01*
X495870Y20140D01*
X495717Y20710D01*
X495640Y21295D01*
X495640Y21885D01*
X495717Y22470D01*
X495870Y23040D01*
X496095Y23585D01*
X496390Y24095D01*
X496749Y24563D01*
X497167Y24981D01*
X497635Y25340D01*
X498145Y25635D01*
X498690Y25860D01*
X499260Y26013D01*
X499845Y26090D01*
X500435Y26090D01*
X501020Y26013D01*
X501590Y25860D01*
X502135Y25635D01*
X502645Y25340D01*
X503113Y24981D01*
X503531Y24563D01*
X503890Y24095D01*
X504185Y23585D01*
X504410Y23040D01*
X504563Y22470D01*
X504640Y21885D01*
X504640Y21295D01*
X474640Y21295D02*
X474563Y20710D01*
X474410Y20140D01*
X474185Y19595D01*
X473890Y19085D01*
X473531Y18617D01*
X473113Y18199D01*
X472645Y17840D01*
X472135Y17545D01*
X471590Y17320D01*
X471020Y17167D01*
X470435Y17090D01*
X469845Y17090D01*
X469260Y17167D01*
X468690Y17320D01*
X468145Y17545D01*
X467635Y17840D01*
X467167Y18199D01*
X466749Y18617D01*
X466390Y19085D01*
X466095Y19595D01*
X465870Y20140D01*
X465717Y20710D01*
X465640Y21295D01*
X465640Y21885D01*
X465717Y22470D01*
X465870Y23040D01*
X466095Y23585D01*
X466390Y24095D01*
X466749Y24563D01*
X467167Y24981D01*
X467635Y25340D01*
X468145Y25635D01*
X468690Y25860D01*
X469260Y26013D01*
X469845Y26090D01*
X470435Y26090D01*
X471020Y26013D01*
X471590Y25860D01*
X472135Y25635D01*
X472645Y25340D01*
X473113Y24981D01*
X473531Y24563D01*
X473890Y24095D01*
X474185Y23585D01*
X474410Y23040D01*
X474563Y22470D01*
X474640Y21885D01*
X474640Y21295D01*
X359800Y42041D02*
X359727Y41489D01*
X359583Y40951D01*
X359370Y40436D01*
X359091Y39954D01*
X358752Y39512D01*
X358358Y39118D01*
X357916Y38779D01*
X357434Y38500D01*
X356919Y38287D01*
X356381Y38143D01*
X355829Y38070D01*
X355271Y38070D01*
X354719Y38143D01*
X354181Y38287D01*
X353666Y38500D01*
X353184Y38779D01*
X352742Y39118D01*
X352348Y39512D01*
X352009Y39954D01*
X351730Y40436D01*
X351517Y40951D01*
X351373Y41489D01*
X351300Y42041D01*
X351300Y42599D01*
X351373Y43151D01*
X351517Y43689D01*
X351730Y44204D01*
X352009Y44686D01*
X352348Y45128D01*
X352742Y45522D01*
X353184Y45861D01*
X353666Y46140D01*
X354181Y46353D01*
X354719Y46497D01*
X355271Y46570D01*
X355829Y46570D01*
X356381Y46497D01*
X356919Y46353D01*
X357434Y46140D01*
X357916Y45861D01*
X358358Y45522D01*
X358752Y45128D01*
X359091Y44686D01*
X359370Y44204D01*
X359583Y43689D01*
X359727Y43151D01*
X359800Y42599D01*
X359800Y42041D01*
X321800Y42041D02*
X321727Y41489D01*
X321583Y40951D01*
X321370Y40436D01*
X321091Y39954D01*
X320752Y39512D01*
X320358Y39118D01*
X319916Y38779D01*
X319434Y38500D01*
X318919Y38287D01*
X318381Y38143D01*
X317829Y38070D01*
X317271Y38070D01*
X316719Y38143D01*
X316181Y38287D01*
X315666Y38500D01*
X315184Y38779D01*
X314742Y39118D01*
X314348Y39512D01*
X314009Y39954D01*
X313730Y40436D01*
X313517Y40951D01*
X313373Y41489D01*
X313300Y42041D01*
X313300Y42599D01*
X313373Y43151D01*
X313517Y43689D01*
X313730Y44204D01*
X314009Y44686D01*
X314348Y45128D01*
X314742Y45522D01*
X315184Y45861D01*
X315666Y46140D01*
X316181Y46353D01*
X316719Y46497D01*
X317271Y46570D01*
X317829Y46570D01*
X318381Y46497D01*
X318919Y46353D01*
X319434Y46140D01*
X319916Y45861D01*
X320358Y45522D01*
X320752Y45128D01*
X321091Y44686D01*
X321370Y44204D01*
X321583Y43689D01*
X321727Y43151D01*
X321800Y42599D01*
X321800Y42041D01*
X474640Y21885D02*
X474563Y22470D01*
X474410Y23040D01*
X474185Y23585D01*
X473890Y24095D01*
X473531Y24563D01*
X473113Y24981D01*
X472645Y25340D01*
X472135Y25635D01*
X471590Y25860D01*
X471020Y26013D01*
X470435Y26090D01*
X469845Y26090D01*
X469260Y26013D01*
X468690Y25860D01*
X468145Y25635D01*
X467635Y25340D01*
X467167Y24981D01*
X466749Y24563D01*
X466390Y24095D01*
X466095Y23585D01*
X465870Y23040D01*
X465717Y22470D01*
X465640Y21885D01*
X465640Y21295D01*
X465717Y20710D01*
X465870Y20140D01*
X466095Y19595D01*
X466390Y19085D01*
X466749Y18617D01*
X467167Y18199D01*
X467635Y17840D01*
X468145Y17545D01*
X468690Y17320D01*
X469260Y17167D01*
X469845Y17090D01*
X470435Y17090D01*
X471020Y17167D01*
X471590Y17320D01*
X472135Y17545D01*
X472645Y17840D01*
X473113Y18199D01*
X473531Y18617D01*
X473890Y19085D01*
X474185Y19595D01*
X474410Y20140D01*
X474563Y20710D01*
X474640Y21295D01*
X474640Y21885D01*
X504640Y21885D02*
X504563Y22470D01*
X504410Y23040D01*
X504185Y23585D01*
X503890Y24095D01*
X503531Y24563D01*
X503113Y24981D01*
X502645Y25340D01*
X502135Y25635D01*
X501590Y25860D01*
X501020Y26013D01*
X500435Y26090D01*
X499845Y26090D01*
X499260Y26013D01*
X498690Y25860D01*
X498145Y25635D01*
X497635Y25340D01*
X497167Y24981D01*
X496749Y24563D01*
X496390Y24095D01*
X496095Y23585D01*
X495870Y23040D01*
X495717Y22470D01*
X495640Y21885D01*
X495640Y21295D01*
X495717Y20710D01*
X495870Y20140D01*
X496095Y19595D01*
X496390Y19085D01*
X496749Y18617D01*
X497167Y18199D01*
X497635Y17840D01*
X498145Y17545D01*
X498690Y17320D01*
X499260Y17167D01*
X499845Y17090D01*
X500435Y17090D01*
X501020Y17167D01*
X501590Y17320D01*
X502135Y17545D01*
X502645Y17840D01*
X503113Y18199D01*
X503531Y18617D01*
X503890Y19085D01*
X504185Y19595D01*
X504410Y20140D01*
X504563Y20710D01*
X504640Y21295D01*
X504640Y21885D01*
X901833Y42830D02*
X901163Y42755D01*
X900506Y42605D01*
X899870Y42382D01*
X899263Y42090D01*
X898693Y41731D01*
X898166Y41311D01*
X897689Y40834D01*
X897269Y40308D01*
X896910Y39737D01*
X896618Y39130D01*
X896395Y38494D01*
X896245Y37837D01*
X896170Y37167D01*
X896170Y36493D01*
X896245Y35823D01*
X896395Y35166D01*
X896618Y34530D01*
X896910Y33923D01*
X897269Y33353D01*
X897689Y32826D01*
X898166Y32349D01*
X898693Y31929D01*
X899263Y31570D01*
X899870Y31278D01*
X900506Y31055D01*
X901163Y30905D01*
X901833Y30830D01*
X902507Y30830D01*
X903177Y30905D01*
X903834Y31055D01*
X904470Y31278D01*
X905077Y31570D01*
X905648Y31929D01*
X906174Y32349D01*
X906651Y32826D01*
X907071Y33353D01*
X907430Y33923D01*
X907722Y34530D01*
X907945Y35166D01*
X908095Y35823D01*
X908170Y36493D01*
X908170Y37167D01*
X908095Y37837D01*
X907945Y38494D01*
X907722Y39130D01*
X907430Y39737D01*
X907071Y40308D01*
X906651Y40834D01*
X906174Y41311D01*
X905648Y41731D01*
X905077Y42090D01*
X904470Y42382D01*
X903834Y42605D01*
X903177Y42755D01*
X902507Y42830D01*
X901833Y42830D01*
X901833Y17830D02*
X901163Y17755D01*
X900506Y17605D01*
X899870Y17382D01*
X899263Y17090D01*
X898693Y16731D01*
X898166Y16311D01*
X897689Y15834D01*
X897269Y15308D01*
X896910Y14737D01*
X896618Y14130D01*
X896395Y13494D01*
X896245Y12837D01*
X896170Y12167D01*
X896170Y11493D01*
X896245Y10823D01*
X896395Y10166D01*
X896618Y9530D01*
X896910Y8923D01*
X897269Y8353D01*
X897689Y7826D01*
X898166Y7349D01*
X898693Y6929D01*
X899263Y6570D01*
X899870Y6278D01*
X900506Y6055D01*
X901163Y5905D01*
X901833Y5830D01*
X902507Y5830D01*
X903177Y5905D01*
X903834Y6055D01*
X904470Y6278D01*
X905077Y6570D01*
X905648Y6929D01*
X906174Y7349D01*
X906651Y7826D01*
X907071Y8353D01*
X907430Y8923D01*
X907722Y9530D01*
X907945Y10166D01*
X908095Y10823D01*
X908170Y11493D01*
X908170Y12167D01*
X908095Y12837D01*
X907945Y13494D01*
X907722Y14130D01*
X907430Y14737D01*
X907071Y15308D01*
X906651Y15834D01*
X906174Y16311D01*
X905648Y16731D01*
X905077Y17090D01*
X904470Y17382D01*
X903834Y17605D01*
X903177Y17755D01*
X902507Y17830D01*
X901833Y17830D01*
X801833Y17830D02*
X801163Y17755D01*
X800506Y17605D01*
X799870Y17382D01*
X799263Y17090D01*
X798693Y16731D01*
X798166Y16311D01*
X797689Y15834D01*
X797269Y15308D01*
X796910Y14737D01*
X796618Y14130D01*
X796395Y13494D01*
X796245Y12837D01*
X796170Y12167D01*
X796170Y11493D01*
X796245Y10823D01*
X796395Y10166D01*
X796618Y9530D01*
X796910Y8923D01*
X797269Y8353D01*
X797689Y7826D01*
X798166Y7349D01*
X798693Y6929D01*
X799263Y6570D01*
X799870Y6278D01*
X800506Y6055D01*
X801163Y5905D01*
X801833Y5830D01*
X802507Y5830D01*
X803177Y5905D01*
X803834Y6055D01*
X804470Y6278D01*
X805077Y6570D01*
X805648Y6929D01*
X806174Y7349D01*
X806651Y7826D01*
X807071Y8353D01*
X807430Y8923D01*
X807722Y9530D01*
X807945Y10166D01*
X808095Y10823D01*
X808170Y11493D01*
X808170Y12167D01*
X808095Y12837D01*
X807945Y13494D01*
X807722Y14130D01*
X807430Y14737D01*
X807071Y15308D01*
X806651Y15834D01*
X806174Y16311D01*
X805648Y16731D01*
X805077Y17090D01*
X804470Y17382D01*
X803834Y17605D01*
X803177Y17755D01*
X802507Y17830D01*
X801833Y17830D01*
X801833Y42830D02*
X801163Y42755D01*
X800506Y42605D01*
X799870Y42382D01*
X799263Y42090D01*
X798693Y41731D01*
X798166Y41311D01*
X797689Y40834D01*
X797269Y40308D01*
X796910Y39737D01*
X796618Y39130D01*
X796395Y38494D01*
X796245Y37837D01*
X796170Y37167D01*
X796170Y36493D01*
X796245Y35823D01*
X796395Y35166D01*
X796618Y34530D01*
X796910Y33923D01*
X797269Y33353D01*
X797689Y32826D01*
X798166Y32349D01*
X798693Y31929D01*
X799263Y31570D01*
X799870Y31278D01*
X800506Y31055D01*
X801163Y30905D01*
X801833Y30830D01*
X802507Y30830D01*
X803177Y30905D01*
X803834Y31055D01*
X804470Y31278D01*
X805077Y31570D01*
X805648Y31929D01*
X806174Y32349D01*
X806651Y32826D01*
X807071Y33353D01*
X807430Y33923D01*
X807722Y34530D01*
X807945Y35166D01*
X808095Y35823D01*
X808170Y36493D01*
X808170Y37167D01*
X808095Y37837D01*
X807945Y38494D01*
X807722Y39130D01*
X807430Y39737D01*
X807071Y40308D01*
X806651Y40834D01*
X806174Y41311D01*
X805648Y41731D01*
X805077Y42090D01*
X804470Y42382D01*
X803834Y42605D01*
X803177Y42755D01*
X802507Y42830D01*
X801833Y42830D01*
X851833Y92830D02*
X851163Y92755D01*
X850506Y92605D01*
X849870Y92382D01*
X849263Y92090D01*
X848693Y91731D01*
X848166Y91311D01*
X847689Y90834D01*
X847269Y90308D01*
X846910Y89737D01*
X846618Y89130D01*
X846395Y88494D01*
X846245Y87837D01*
X846170Y87167D01*
X846170Y86493D01*
X846245Y85823D01*
X846395Y85166D01*
X846618Y84530D01*
X846910Y83923D01*
X847269Y83353D01*
X847689Y82826D01*
X848166Y82349D01*
X848693Y81929D01*
X849263Y81570D01*
X849870Y81278D01*
X850506Y81055D01*
X851163Y80905D01*
X851833Y80830D01*
X852507Y80830D01*
X853177Y80905D01*
X853834Y81055D01*
X854470Y81278D01*
X855077Y81570D01*
X855648Y81929D01*
X856174Y82349D01*
X856651Y82826D01*
X857071Y83353D01*
X857430Y83923D01*
X857722Y84530D01*
X857945Y85166D01*
X858095Y85823D01*
X858170Y86493D01*
X858170Y87167D01*
X858095Y87837D01*
X857945Y88494D01*
X857722Y89130D01*
X857430Y89737D01*
X857071Y90308D01*
X856651Y90834D01*
X856174Y91311D01*
X855648Y91731D01*
X855077Y92090D01*
X854470Y92382D01*
X853834Y92605D01*
X853177Y92755D01*
X852507Y92830D01*
X851833Y92830D01*
X355271Y46570D02*
X354719Y46497D01*
X354181Y46353D01*
X353666Y46140D01*
X353184Y45861D01*
X352742Y45522D01*
X352348Y45128D01*
X352009Y44686D01*
X351730Y44204D01*
X351517Y43689D01*
X351373Y43151D01*
X351300Y42599D01*
X351300Y42041D01*
X351373Y41489D01*
X351517Y40951D01*
X351730Y40436D01*
X352009Y39954D01*
X352348Y39512D01*
X352742Y39118D01*
X353184Y38779D01*
X353666Y38500D01*
X354181Y38287D01*
X354719Y38143D01*
X355271Y38070D01*
X355829Y38070D01*
X356381Y38143D01*
X356919Y38287D01*
X357434Y38500D01*
X357916Y38779D01*
X358358Y39118D01*
X358752Y39512D01*
X359091Y39954D01*
X359370Y40436D01*
X359583Y40951D01*
X359727Y41489D01*
X359800Y42041D01*
X359800Y42599D01*
X359727Y43151D01*
X359583Y43689D01*
X359370Y44204D01*
X359091Y44686D01*
X358752Y45128D01*
X358358Y45522D01*
X357916Y45861D01*
X357434Y46140D01*
X356919Y46353D01*
X356381Y46497D01*
X355829Y46570D01*
X355271Y46570D01*
X317271Y46570D02*
X316719Y46497D01*
X316181Y46353D01*
X315666Y46140D01*
X315184Y45861D01*
X314742Y45522D01*
X314348Y45128D01*
X314009Y44686D01*
X313730Y44204D01*
X313517Y43689D01*
X313373Y43151D01*
X313300Y42599D01*
X313300Y42041D01*
X313373Y41489D01*
X313517Y40951D01*
X313730Y40436D01*
X314009Y39954D01*
X314348Y39512D01*
X314742Y39118D01*
X315184Y38779D01*
X315666Y38500D01*
X316181Y38287D01*
X316719Y38143D01*
X317271Y38070D01*
X317829Y38070D01*
X318381Y38143D01*
X318919Y38287D01*
X319434Y38500D01*
X319916Y38779D01*
X320358Y39118D01*
X320752Y39512D01*
X321091Y39954D01*
X321370Y40436D01*
X321583Y40951D01*
X321727Y41489D01*
X321800Y42041D01*
X321800Y42599D01*
X321727Y43151D01*
X321583Y43689D01*
X321370Y44204D01*
X321091Y44686D01*
X320752Y45128D01*
X320358Y45522D01*
X319916Y45861D01*
X319434Y46140D01*
X318919Y46353D01*
X318381Y46497D01*
X317829Y46570D01*
X317271Y46570D01*
M02*
